<svg xmlns="http://www.w3.org/2000/svg" xmlns:xlink="http://www.w3.org/1999/xlink" id="processonSvg1000" viewBox="16.0 211.0 961.0 984.0" width="961.0" height="984.0"><defs id="ProcessOnDefs1001"><marker id="ProcessOnMarker1023" markerUnits="userSpaceOnUse" orient="auto" markerWidth="16.23606797749979" markerHeight="10.550836550532098" viewBox="-1.0 -1.3763819204711736 16.23606797749979 10.550836550532098" refX="-1.0" refY="3.8990363547948754"><path id="ProcessOnPath1024" d="M12.0 3.8990363547948754L0.0 7.798072709589751V0.0Z" stroke="#323232" stroke-width="2.0" fill="#323232" transform="matrix(1.0,0.0,0.0,1.0,0.0,0.0)"/></marker><marker id="ProcessOnMarker1030" markerUnits="userSpaceOnUse" orient="auto" markerWidth="16.23606797749979" markerHeight="10.550836550532098" viewBox="-1.0 -1.3763819204711736 16.23606797749979 10.550836550532098" refX="-1.0" refY="3.8990363547948754"><path id="ProcessOnPath1031" d="M12.0 3.8990363547948754L0.0 7.798072709589751V0.0Z" stroke="#323232" stroke-width="2.0" fill="#323232" transform="matrix(1.0,0.0,0.0,1.0,0.0,0.0)"/></marker><marker id="ProcessOnMarker1034" markerUnits="userSpaceOnUse" orient="auto" markerWidth="16.23606797749979" markerHeight="10.550836550532098" viewBox="-1.0 -1.3763819204711736 16.23606797749979 10.550836550532098" refX="-1.0" refY="3.8990363547948754"><path id="ProcessOnPath1035" d="M12.0 3.8990363547948754L0.0 7.798072709589751V0.0Z" stroke="#323232" stroke-width="2.0" fill="#323232" transform="matrix(1.0,0.0,0.0,1.0,0.0,0.0)"/></marker><marker id="ProcessOnMarker1045" markerUnits="userSpaceOnUse" orient="auto" markerWidth="16.23606797749979" markerHeight="10.550836550532098" viewBox="-1.0 -1.3763819204711736 16.23606797749979 10.550836550532098" refX="-1.0" refY="3.8990363547948754"><path id="ProcessOnPath1046" d="M12.0 3.8990363547948754L0.0 7.798072709589751V0.0Z" stroke="#323232" stroke-width="2.0" fill="#323232" transform="matrix(1.0,0.0,0.0,1.0,0.0,0.0)"/></marker><marker id="ProcessOnMarker1049" markerUnits="userSpaceOnUse" orient="auto" markerWidth="16.23606797749979" markerHeight="10.550836550532098" viewBox="-1.0 -1.3763819204711736 16.23606797749979 10.550836550532098" refX="-1.0" refY="3.8990363547948754"><path id="ProcessOnPath1050" d="M12.0 3.8990363547948754L0.0 7.798072709589751V0.0Z" stroke="#323232" stroke-width="2.0" fill="#323232" transform="matrix(1.0,0.0,0.0,1.0,0.0,0.0)"/></marker><marker id="ProcessOnMarker1057" markerUnits="userSpaceOnUse" orient="auto" markerWidth="16.23606797749979" markerHeight="10.550836550532098" viewBox="-1.0 -1.3763819204711736 16.23606797749979 10.550836550532098" refX="-1.0" refY="3.8990363547948754"><path id="ProcessOnPath1058" d="M12.0 3.8990363547948754L0.0 7.798072709589751V0.0Z" stroke="#323232" stroke-width="2.0" fill="#323232" transform="matrix(1.0,0.0,0.0,1.0,0.0,0.0)"/></marker><marker id="ProcessOnMarker1064" markerUnits="userSpaceOnUse" orient="auto" markerWidth="16.23606797749979" markerHeight="10.550836550532098" viewBox="-1.0 -1.3763819204711736 16.23606797749979 10.550836550532098" refX="-1.0" refY="3.8990363547948754"><path id="ProcessOnPath1065" d="M12.0 3.8990363547948754L0.0 7.798072709589751V0.0Z" stroke="#323232" stroke-width="2.0" fill="#323232" transform="matrix(1.0,0.0,0.0,1.0,0.0,0.0)"/></marker><marker id="ProcessOnMarker1079" markerUnits="userSpaceOnUse" orient="auto" markerWidth="16.23606797749979" markerHeight="10.550836550532098" viewBox="-1.0 -1.3763819204711736 16.23606797749979 10.550836550532098" refX="-1.0" refY="3.8990363547948754"><path id="ProcessOnPath1080" d="M12.0 3.8990363547948754L0.0 7.798072709589751V0.0Z" stroke="#323232" stroke-width="2.0" fill="#323232" transform="matrix(1.0,0.0,0.0,1.0,0.0,0.0)"/></marker><marker id="ProcessOnMarker1087" markerUnits="userSpaceOnUse" orient="auto" markerWidth="16.23606797749979" markerHeight="10.550836550532098" viewBox="-1.0 -1.3763819204711736 16.23606797749979 10.550836550532098" refX="-1.0" refY="3.8990363547948754"><path id="ProcessOnPath1088" d="M12.0 3.8990363547948754L0.0 7.798072709589751V0.0Z" stroke="#323232" stroke-width="2.0" fill="#323232" transform="matrix(1.0,0.0,0.0,1.0,0.0,0.0)"/></marker><marker id="ProcessOnMarker1099" markerUnits="userSpaceOnUse" orient="auto" markerWidth="16.23606797749979" markerHeight="10.550836550532098" viewBox="-1.0 -1.3763819204711736 16.23606797749979 10.550836550532098" refX="-1.0" refY="3.8990363547948754"><path id="ProcessOnPath1100" d="M12.0 3.8990363547948754L0.0 7.798072709589751V0.0Z" stroke="#323232" stroke-width="2.0" fill="#323232" transform="matrix(1.0,0.0,0.0,1.0,0.0,0.0)"/></marker><marker id="ProcessOnMarker1108" markerUnits="userSpaceOnUse" orient="auto" markerWidth="16.23606797749979" markerHeight="10.550836550532098" viewBox="-1.0 -1.3763819204711736 16.23606797749979 10.550836550532098" refX="-1.0" refY="3.8990363547948754"><path id="ProcessOnPath1109" d="M12.0 3.8990363547948754L0.0 7.798072709589751V0.0Z" stroke="#323232" stroke-width="2.0" fill="#323232" transform="matrix(1.0,0.0,0.0,1.0,0.0,0.0)"/></marker><marker id="ProcessOnMarker1125" markerUnits="userSpaceOnUse" orient="auto" markerWidth="16.23606797749979" markerHeight="10.550836550532098" viewBox="-1.0 -1.3763819204711736 16.23606797749979 10.550836550532098" refX="-1.0" refY="3.8990363547948754"><path id="ProcessOnPath1126" d="M12.0 3.8990363547948754L0.0 7.798072709589751V0.0Z" stroke="#323232" stroke-width="2.0" fill="#323232" transform="matrix(1.0,0.0,0.0,1.0,0.0,0.0)"/></marker><marker id="ProcessOnMarker1132" markerUnits="userSpaceOnUse" orient="auto" markerWidth="16.23606797749979" markerHeight="10.550836550532098" viewBox="-1.0 -1.3763819204711736 16.23606797749979 10.550836550532098" refX="-1.0" refY="3.8990363547948754"><path id="ProcessOnPath1133" d="M12.0 3.8990363547948754L0.0 7.798072709589751V0.0Z" stroke="#323232" stroke-width="2.0" fill="#323232" transform="matrix(1.0,0.0,0.0,1.0,0.0,0.0)"/></marker><marker id="ProcessOnMarker1139" markerUnits="userSpaceOnUse" orient="auto" markerWidth="16.23606797749979" markerHeight="10.550836550532098" viewBox="-1.0 -1.3763819204711736 16.23606797749979 10.550836550532098" refX="-1.0" refY="3.8990363547948754"><path id="ProcessOnPath1140" d="M12.0 3.8990363547948754L0.0 7.798072709589751V0.0Z" stroke="#323232" stroke-width="2.0" fill="#323232" transform="matrix(1.0,0.0,0.0,1.0,0.0,0.0)"/></marker><marker id="ProcessOnMarker1146" markerUnits="userSpaceOnUse" orient="auto" markerWidth="16.23606797749979" markerHeight="10.550836550532098" viewBox="-1.0 -1.3763819204711736 16.23606797749979 10.550836550532098" refX="-1.0" refY="3.8990363547948754"><path id="ProcessOnPath1147" d="M12.0 3.8990363547948754L0.0 7.798072709589751V0.0Z" stroke="#323232" stroke-width="2.0" fill="#323232" transform="matrix(1.0,0.0,0.0,1.0,0.0,0.0)"/></marker></defs><g id="ProcessOnG1002"><path id="ProcessOnPath1003" d="M16.0 211.0H977.0V1195.0H16.0V211.0Z" fill="#ffffff"/><g id="ProcessOnG1004"><g id="ProcessOnG1005" transform="matrix(1.0,0.0,0.0,1.0,277.0,355.0)" opacity="1.0"><path id="ProcessOnPath1006" d="M0.0 0.0L100.0 0.0L100.0 70.0L0.0 70.0Z" stroke="#323232" stroke-width="2.0" stroke-dasharray="none" fill="#6ed464"/><g id="ProcessOnG1007" transform="matrix(1.0,0.0,0.0,1.0,10.0,26.875)"><text id="ProcessOnText1008" fill="#323232" font-weight="normal" font-style="normal" text-decoration="blink" font-family="Arial,宋体" text-anchor="middle" font-size="13" x="40.0" y="13.325">master</text></g></g><g id="ProcessOnG1009" transform="matrix(1.0,0.0,0.0,1.0,36.0,524.0)" opacity="1.0"><path id="ProcessOnPath1010" d="M0.0 35.0C0.0 -11.666666666666666 70.0 -11.666666666666666 70.0 35.0C70.0 81.66666666666667 0.0 81.66666666666667 0.0 35.0Z" stroke="#323232" stroke-width="2.0" stroke-dasharray="none" fill="#6ed464"/><g id="ProcessOnG1011" transform="matrix(1.0,0.0,0.0,1.0,10.0,26.875)"><text id="ProcessOnText1012" fill="#323232" font-weight="normal" font-style="normal" text-decoration="blink" font-family="Arial,宋体" text-anchor="middle" font-size="13" x="25.0" y="13.325">dev1</text></g></g><g id="ProcessOnG1013" transform="matrix(1.0,0.0,0.0,1.0,292.0,528.0)" opacity="1.0"><path id="ProcessOnPath1014" d="M0.0 35.0C0.0 -11.666666666666666 70.0 -11.666666666666666 70.0 35.0C70.0 81.66666666666667 0.0 81.66666666666667 0.0 35.0Z" stroke="#323232" stroke-width="2.0" stroke-dasharray="none" fill="#6ed464"/><g id="ProcessOnG1015" transform="matrix(1.0,0.0,0.0,1.0,10.0,26.875)"><text id="ProcessOnText1016" fill="#323232" font-weight="normal" font-style="normal" text-decoration="blink" font-family="Arial,宋体" text-anchor="middle" font-size="13" x="25.0" y="13.325">dev2</text></g></g><g id="ProcessOnG1017" transform="matrix(1.0,0.0,0.0,1.0,548.0,524.0)" opacity="1.0"><path id="ProcessOnPath1018" d="M0.0 35.0C0.0 -11.666666666666666 70.0 -11.666666666666666 70.0 35.0C70.0 81.66666666666667 0.0 81.66666666666667 0.0 35.0Z" stroke="#323232" stroke-width="2.0" stroke-dasharray="none" fill="#6ed464"/><g id="ProcessOnG1019" transform="matrix(1.0,0.0,0.0,1.0,10.0,26.875)"><text id="ProcessOnText1020" fill="#323232" font-weight="normal" font-style="normal" text-decoration="blink" font-family="Arial,宋体" text-anchor="middle" font-size="13" x="25.0" y="13.325">dev3</text></g></g><g id="ProcessOnG1021"><path id="ProcessOnPath1022" d="M327.0 425.0L327.0 474.5L71.0 474.5L71.0 508.7639320225002" stroke="#323232" stroke-width="2.0" stroke-dasharray="none" fill="none" marker-end="url(#ProcessOnMarker1023)"/><g id="ProcessOnG1025" transform="matrix(1.0,0.0,0.0,1.0,206.6180339887499,466.375)"><path id="ProcessOnPath1026" d="M0 0H119.99999999999997V16.25H0Z" fill="#fff" transform="matrix(1.0,0.0,0.0,1.0,-59.999999999999986,0.0)"/><text id="ProcessOnText1027" fill="#323232" font-weight="normal" font-style="normal" text-decoration="blink" font-family="Arial,宋体" text-anchor="middle" font-size="13" x="0.0" y="13.325">基于最新tag创建开发分支</text></g></g><g id="ProcessOnG1028"><path id="ProcessOnPath1029" d="M327.0 425.0L327.0 476.5L327.0 476.5L327.0 512.7639320225002" stroke="#323232" stroke-width="2.0" stroke-dasharray="none" fill="none" marker-end="url(#ProcessOnMarker1030)"/></g><g id="ProcessOnG1032"><path id="ProcessOnPath1033" d="M327.0 425.0L327.0 474.5L583.0 474.5L583.0 508.7639320225002" stroke="#323232" stroke-width="2.0" stroke-dasharray="none" fill="none" marker-end="url(#ProcessOnMarker1034)"/><g id="ProcessOnG1036" transform="matrix(1.0,0.0,0.0,1.0,447.38196601125014,466.375)"><path id="ProcessOnPath1037" d="M0 0H120.0V16.25H0Z" fill="#fff" transform="matrix(1.0,0.0,0.0,1.0,-60.0,0.0)"/><text id="ProcessOnText1038" fill="#323232" font-weight="normal" font-style="normal" text-decoration="blink" font-family="Arial,宋体" text-anchor="middle" font-size="13" x="0.0" y="13.325">基于最新tag创建开发分支</text></g></g><g id="ProcessOnG1039" transform="matrix(1.0,0.0,0.0,1.0,292.0,660.0)" opacity="1.0"><path id="ProcessOnPath1040" d="M35.0 70.0C-11.666666666666664 70.0 -11.666666666666664 0.0 35.0 0.0C81.66666666666666 0.0 81.66666666666666 70.0 35.0 70.0L70.0 70.0Z" stroke="#323232" stroke-width="2.0" stroke-dasharray="none" fill="#6ed464"/><g id="ProcessOnG1041" transform="matrix(1.0,0.0,0.0,1.0,10.0,26.875)"><text id="ProcessOnText1042" fill="#323232" font-weight="normal" font-style="normal" text-decoration="blink" font-family="Arial,宋体" text-anchor="middle" font-size="13" x="25.0" y="13.325">功能测试</text></g></g><g id="ProcessOnG1043"><path id="ProcessOnPath1044" d="M71.0 594.0L71.0 627.0L327.0 627.0L327.0 644.7639320225002" stroke="#323232" stroke-width="2.0" stroke-dasharray="none" fill="none" marker-end="url(#ProcessOnMarker1045)"/></g><g id="ProcessOnG1047"><path id="ProcessOnPath1048" d="M583.0 594.0L583.0 627.0L327.0 627.0L327.0 644.7639320225002" stroke="#323232" stroke-width="2.0" stroke-dasharray="none" fill="none" marker-end="url(#ProcessOnMarker1049)"/></g><g id="ProcessOnG1051" transform="matrix(1.0,0.0,0.0,1.0,277.0,819.0)" opacity="1.0"><path id="ProcessOnPath1052" d="M0.0 0.0L100.0 0.0L100.0 70.0L0.0 70.0Z" stroke="#323232" stroke-width="2.0" stroke-dasharray="none" fill="#6ed464"/><g id="ProcessOnG1053" transform="matrix(1.0,0.0,0.0,1.0,10.0,26.875)"><text id="ProcessOnText1054" fill="#323232" font-weight="normal" font-style="normal" text-decoration="blink" font-family="Arial,宋体" text-anchor="middle" font-size="13" x="40.0" y="13.325">master</text></g></g><g id="ProcessOnG1055"><path id="ProcessOnPath1056" d="M327.0 730.0L327.0 774.5L327.0 774.5L327.0 803.7639320225002" stroke="#323232" stroke-width="2.0" stroke-dasharray="none" fill="none" marker-end="url(#ProcessOnMarker1057)"/><g id="ProcessOnG1059" transform="matrix(1.0,0.0,0.0,1.0,327.0,758.7569660112501)"><path id="ProcessOnPath1060" d="M0 0H125.0V16.25H0Z" fill="#fff" transform="matrix(1.0,0.0,0.0,1.0,-62.5,0.0)"/><text id="ProcessOnText1061" fill="#323232" font-weight="normal" font-style="normal" text-decoration="blink" font-family="Arial,宋体" text-anchor="middle" font-size="13" x="0.0" y="13.325">将dev分支合并至master</text></g></g><g id="ProcessOnG1062"><path id="ProcessOnPath1063" d="M327.0 598.0L327.0 629.0L327.0 629.0L327.0 644.7639320225002" stroke="#323232" stroke-width="2.0" stroke-dasharray="none" fill="none" marker-end="url(#ProcessOnMarker1064)"/></g><g id="ProcessOnG1066" transform="matrix(1.0,0.0,0.0,1.0,110.0,957.0)" opacity="1.0"><path id="ProcessOnPath1067" d="M35.0 70.0C-11.666666666666664 70.0 -11.666666666666664 0.0 35.0 0.0C81.66666666666666 0.0 81.66666666666666 70.0 35.0 70.0L70.0 70.0Z" stroke="#323232" stroke-width="2.0" stroke-dasharray="none" fill="#6ed464"/><g id="ProcessOnG1068" transform="matrix(1.0,0.0,0.0,1.0,10.0,18.75)"><text id="ProcessOnText1069" fill="#323232" font-weight="normal" font-style="normal" text-decoration="blink" font-family="Arial,宋体" text-anchor="middle" font-size="13" x="25.0" y="13.325">生产发布</text><text id="ProcessOnText1070" fill="#323232" font-weight="normal" font-style="normal" text-decoration="blink" font-family="Arial,宋体" text-anchor="middle" font-size="13" x="25.0" y="29.575">master</text></g></g><g id="ProcessOnG1071" transform="matrix(1.0,0.0,0.0,1.0,384.0,957.0)" opacity="1.0"><path id="ProcessOnPath1072" d="M0.0 0.0L100.0 0.0L100.0 70.0L0.0 70.0Z" stroke="#323232" stroke-width="2.0" stroke-dasharray="none" fill="#6ed464"/><g id="ProcessOnG1073" transform="matrix(1.0,0.0,0.0,1.0,10.0,10.625)"><text id="ProcessOnText1074" fill="#323232" font-weight="normal" font-style="normal" text-decoration="blink" font-family="Arial,宋体" text-anchor="middle" font-size="13" x="40.0" y="13.325">在master上创</text><text id="ProcessOnText1075" fill="#323232" font-weight="normal" font-style="normal" text-decoration="blink" font-family="Arial,宋体" text-anchor="middle" font-size="13" x="40.0" y="29.575">建tag</text><text id="ProcessOnText1076" fill="#323232" font-weight="normal" font-style="normal" text-decoration="blink" font-family="Arial,宋体" text-anchor="middle" font-size="13" x="40.0" y="45.825">本次迭代结束。</text></g></g><g id="ProcessOnG1077"><path id="ProcessOnPath1078" d="M180.0 992.0L282.0 992.0L282.0 992.0L368.7639320225002 992.0" stroke="#323232" stroke-width="2.0" stroke-dasharray="none" fill="none" marker-end="url(#ProcessOnMarker1079)"/></g><g id="ProcessOnG1081" transform="matrix(1.0,0.0,0.0,1.0,277.0,231.0)" opacity="1.0"><path id="ProcessOnPath1082" d="M0.0 8.333333333333334Q25.0 25.0 50.0 8.333333333333334Q75.0 -8.333333333333334 100.0 8.333333333333334L100.0 61.666666666666664Q75.0 45.0 50.0 61.666666666666664Q25.0 78.33333333333333 0.0 61.666666666666664L0.0 8.333333333333334Z" stroke="#323232" stroke-width="2.0" stroke-dasharray="none" fill="#6ed464"/><g id="ProcessOnG1083" transform="matrix(1.0,0.0,0.0,1.0,0.0,26.875)"><text id="ProcessOnText1084" fill="#323232" font-weight="normal" font-style="normal" text-decoration="blink" font-family="Arial,宋体" text-anchor="middle" font-size="13" x="50.0" y="13.325">常规分支策略</text></g></g><g id="ProcessOnG1085"><path id="ProcessOnPath1086" d="M327.0 292.66666666666663L327.0 323.8333333333333L327.0 323.8333333333333L327.0 339.7639320225002" stroke="#323232" stroke-width="2.0" stroke-dasharray="none" fill="none" marker-end="url(#ProcessOnMarker1087)"/></g><g id="ProcessOnG1089" transform="matrix(1.0,0.0,0.0,1.0,719.0,231.0)" opacity="1.0"><path id="ProcessOnPath1090" d="M0.0 8.333333333333334Q25.0 25.0 50.0 8.333333333333334Q75.0 -8.333333333333334 100.0 8.333333333333334L100.0 61.666666666666664Q75.0 45.0 50.0 61.666666666666664Q25.0 78.33333333333333 0.0 61.666666666666664L0.0 8.333333333333334Z" stroke="#323232" stroke-width="2.0" stroke-dasharray="none" fill="#ff3333"/><g id="ProcessOnG1091" transform="matrix(1.0,0.0,0.0,1.0,0.0,26.875)"><text id="ProcessOnText1092" fill="#ffffff" font-weight="normal" font-style="normal" text-decoration="blink" font-family="Arial,宋体" text-anchor="middle" font-size="13" x="50.0" y="13.325">紧急分支策略</text></g></g><g id="ProcessOnG1093" transform="matrix(1.0,0.0,0.0,1.0,719.0,378.0)" opacity="1.0"><path id="ProcessOnPath1094" d="M0.0 0.0L100.0 0.0L100.0 70.0L0.0 70.0Z" stroke="#323232" stroke-width="2.0" stroke-dasharray="none" fill="#6ed464"/><g id="ProcessOnG1095" transform="matrix(1.0,0.0,0.0,1.0,10.0,26.875)"><text id="ProcessOnText1096" fill="#323232" font-weight="normal" font-style="normal" text-decoration="blink" font-family="Arial,宋体" text-anchor="middle" font-size="13" x="40.0" y="13.325">master</text></g></g><g id="ProcessOnG1097"><path id="ProcessOnPath1098" d="M769.0 292.66666666666663L769.0 335.3333333333333L769.0 335.3333333333333L769.0 362.7639320225002" stroke="#323232" stroke-width="2.0" stroke-dasharray="none" fill="none" marker-end="url(#ProcessOnMarker1099)"/></g><g id="ProcessOnG1101" transform="matrix(1.0,0.0,0.0,1.0,734.0,548.0)" opacity="1.0"><path id="ProcessOnPath1102" d="M0.0 35.0C0.0 -11.666666666666666 70.0 -11.666666666666666 70.0 35.0C70.0 81.66666666666667 0.0 81.66666666666667 0.0 35.0Z" stroke="#323232" stroke-width="2.0" stroke-dasharray="none" fill="#6ed464"/><g id="ProcessOnG1103" transform="matrix(1.0,0.0,0.0,1.0,10.0,18.75)"><text id="ProcessOnText1104" fill="#323232" font-weight="normal" font-style="normal" text-decoration="blink" font-family="Arial,宋体" text-anchor="middle" font-size="13" x="25.0" y="13.325">hotFix分</text><text id="ProcessOnText1105" fill="#323232" font-weight="normal" font-style="normal" text-decoration="blink" font-family="Arial,宋体" text-anchor="middle" font-size="13" x="25.0" y="29.575">支</text></g></g><g id="ProcessOnG1106"><path id="ProcessOnPath1107" d="M769.0 448.0L769.0 498.0L769.0 498.0L769.0 532.7639320225002" stroke="#323232" stroke-width="2.0" stroke-dasharray="none" fill="none" marker-end="url(#ProcessOnMarker1108)"/><g id="ProcessOnG1110" transform="matrix(1.0,0.0,0.0,1.0,769.0,482.2569660112501)"><path id="ProcessOnPath1111" d="M0 0H120.0V16.25H0Z" fill="#fff" transform="matrix(1.0,0.0,0.0,1.0,-60.0,0.0)"/><text id="ProcessOnText1112" fill="#323232" font-weight="normal" font-style="normal" text-decoration="blink" font-family="Arial,宋体" text-anchor="middle" font-size="13" x="0.0" y="13.325">基于最新tag创建紧急分支</text></g></g><g id="ProcessOnG1113" transform="matrix(1.0,0.0,0.0,1.0,734.0,727.0)" opacity="1.0"><path id="ProcessOnPath1114" d="M35.0 70.0C-11.666666666666664 70.0 -11.666666666666664 0.0 35.0 0.0C81.66666666666666 0.0 81.66666666666666 70.0 35.0 70.0L70.0 70.0Z" stroke="#323232" stroke-width="2.0" stroke-dasharray="none" fill="#6ed464"/><g id="ProcessOnG1115" transform="matrix(1.0,0.0,0.0,1.0,10.0,18.75)"><text id="ProcessOnText1116" fill="#323232" font-weight="normal" font-style="normal" text-decoration="blink" font-family="Arial,宋体" text-anchor="middle" font-size="13" x="25.0" y="13.325">生产发布h</text><text id="ProcessOnText1117" fill="#323232" font-weight="normal" font-style="normal" text-decoration="blink" font-family="Arial,宋体" text-anchor="middle" font-size="13" x="25.0" y="29.575">otFix</text></g></g><g id="ProcessOnG1118" transform="matrix(1.0,0.0,0.0,1.0,852.0,943.0)" opacity="1.0"><path id="ProcessOnPath1119" d="M0.0 0.0L100.0 0.0L100.0 70.0L0.0 70.0Z" stroke="#323232" stroke-width="2.0" stroke-dasharray="none" fill="#6ed464"/><g id="ProcessOnG1120" transform="matrix(1.0,0.0,0.0,1.0,10.0,18.75)"><text id="ProcessOnText1121" fill="#323232" font-weight="normal" font-style="normal" text-decoration="blink" font-family="Arial,宋体" text-anchor="middle" font-size="13" x="40.0" y="13.325">在hotFix上面创</text><text id="ProcessOnText1122" fill="#323232" font-weight="normal" font-style="normal" text-decoration="blink" font-family="Arial,宋体" text-anchor="middle" font-size="13" x="40.0" y="29.575">建tag</text></g></g><g id="ProcessOnG1123"><path id="ProcessOnPath1124" d="M769.0 618.0L769.0 672.5L769.0 672.5L769.0 711.7639320225002" stroke="#323232" stroke-width="2.0" stroke-dasharray="none" fill="none" marker-end="url(#ProcessOnMarker1125)"/><g id="ProcessOnG1127" transform="matrix(1.0,0.0,0.0,1.0,769.0,656.7569660112501)"><path id="ProcessOnPath1128" d="M0 0H90.0V16.25H0Z" fill="#fff" transform="matrix(1.0,0.0,0.0,1.0,-45.0,0.0)"/><text id="ProcessOnText1129" fill="#323232" font-weight="normal" font-style="normal" text-decoration="blink" font-family="Arial,宋体" text-anchor="middle" font-size="13" x="0.0" y="13.325">FWS/UAT/PRD</text></g></g><g id="ProcessOnG1130"><path id="ProcessOnPath1131" d="M902.0 943.0L902.0 413.0L834.2360679774998 413.0" stroke="#323232" stroke-width="2.0" stroke-dasharray="none" fill="none" marker-end="url(#ProcessOnMarker1132)"/><g id="ProcessOnG1134" transform="matrix(1.0,0.0,0.0,1.0,902.0,635.9930339887499)"><path id="ProcessOnPath1135" d="M0 0H110.0V16.25H0Z" fill="#fff" transform="matrix(1.0,0.0,0.0,1.0,-55.0,0.0)"/><text id="ProcessOnText1136" fill="#323232" font-weight="normal" font-style="normal" text-decoration="blink" font-family="Arial,宋体" text-anchor="middle" font-size="13" x="0.0" y="13.325">合并代码，本次迭代结束</text></g></g><g id="ProcessOnG1137"><path id="ProcessOnPath1138" d="M277.0 854.0L145.0 854.0L145.0 941.7639320225002" stroke="#323232" stroke-width="2.0" stroke-dasharray="none" fill="none" marker-end="url(#ProcessOnMarker1139)"/><g id="ProcessOnG1141" transform="matrix(1.0,0.0,0.0,1.0,167.11803398874991,845.875)"><path id="ProcessOnPath1142" d="M0 0H90.0V16.25H0Z" fill="#fff" transform="matrix(1.0,0.0,0.0,1.0,-45.0,0.0)"/><text id="ProcessOnText1143" fill="#323232" font-weight="normal" font-style="normal" text-decoration="blink" font-family="Arial,宋体" text-anchor="middle" font-size="13" x="0.0" y="13.325">FWS/UAT/PRD</text></g></g><g id="ProcessOnG1144"><path id="ProcessOnPath1145" d="M769.0 797.0L769.0 978.0L836.7639320225002 978.0" stroke="#323232" stroke-width="2.0" stroke-dasharray="none" fill="none" marker-end="url(#ProcessOnMarker1146)"/></g><g id="ProcessOnG1148" transform="matrix(1.0,0.0,0.0,1.0,63.0,1058.0)" opacity="1.0"><path id="ProcessOnPath1149" d="M0.0 0.0L893.0 0.0L893.0 117.0L0.0 117.0Z" stroke="#323232" stroke-width="2.0" stroke-dasharray="none" fill="#e6ffcc"/><g id="ProcessOnG1150" transform="matrix(1.0,0.0,0.0,1.0,10.0,23.5)"><text id="ProcessOnText1151" fill="#323232" font-weight="bold" font-style="normal" text-decoration="blink" font-family="微软雅黑" text-anchor="start" font-size="14" x="0.0" y="14.350000000000001">涉及到的分支：</text><text id="ProcessOnText1152" fill="#323232" font-weight="bold" font-style="normal" text-decoration="blink" font-family="微软雅黑" text-anchor="start" font-size="14" x="0.0" y="31.85">1、主分支master</text><text id="ProcessOnText1153" fill="#323232" font-weight="bold" font-style="normal" text-decoration="blink" font-family="微软雅黑" text-anchor="start" font-size="14" x="0.0" y="49.35">2、开发分支dev1/dev2/dev3...</text><text id="ProcessOnText1154" fill="#323232" font-weight="bold" font-style="normal" text-decoration="blink" font-family="微软雅黑" text-anchor="start" font-size="14" x="0.0" y="66.85">3、紧急分支hotfix1/hotfix2/hotfix3...</text></g></g></g></g></svg>